<mxfile host="app.diagrams.net" agent="Mozilla/5.0 (Windows NT 10.0; Win64; x64) AppleWebKit/537.36 (KHTML, like Gecko) Chrome/127.0.0.0 Safari/537.36" version="24.7.7">
  <diagram name="Página-1" id="K0_Lqee39WNjtgFZswBb">
    <mxGraphModel dx="1674" dy="772" grid="1" gridSize="10" guides="1" tooltips="1" connect="1" arrows="1" fold="1" page="1" pageScale="1" pageWidth="1169" pageHeight="827" math="0" shadow="0">
      <root>
        <mxCell id="0" />
        <mxCell id="1" parent="0" />
        <mxCell id="c24GGnqR41atnpSuBChh-1" value="cliente" style="shape=umlActor;verticalLabelPosition=bottom;verticalAlign=top;html=1;outlineConnect=0;" vertex="1" parent="1">
          <mxGeometry x="100" y="170" width="30" height="60" as="geometry" />
        </mxCell>
        <mxCell id="c24GGnqR41atnpSuBChh-4" value="mostrar resumen de servicios adicionales&amp;nbsp;&lt;br&gt;(costo, confirmar)" style="ellipse;whiteSpace=wrap;html=1;" vertex="1" parent="1">
          <mxGeometry x="600" y="70" width="120" height="80" as="geometry" />
        </mxCell>
        <mxCell id="c24GGnqR41atnpSuBChh-5" value="enviar notificación por email" style="ellipse;whiteSpace=wrap;html=1;" vertex="1" parent="1">
          <mxGeometry x="620" y="230" width="120" height="80" as="geometry" />
        </mxCell>
        <mxCell id="c24GGnqR41atnpSuBChh-6" value="verificar stock en servicios adicionales" style="ellipse;whiteSpace=wrap;html=1;" vertex="1" parent="1">
          <mxGeometry x="405" y="220" width="120" height="80" as="geometry" />
        </mxCell>
        <mxCell id="c24GGnqR41atnpSuBChh-7" value="guardar reserva en el sistema&amp;nbsp;" style="ellipse;whiteSpace=wrap;html=1;" vertex="1" parent="1">
          <mxGeometry x="800" y="190" width="120" height="80" as="geometry" />
        </mxCell>
        <mxCell id="c24GGnqR41atnpSuBChh-9" value="servicios adicionales&amp;nbsp;" style="ellipse;whiteSpace=wrap;html=1;" vertex="1" parent="1">
          <mxGeometry x="170" y="170" width="150" height="80" as="geometry" />
        </mxCell>
        <mxCell id="c24GGnqR41atnpSuBChh-17" value="extend" style="endArrow=classic;html=1;rounded=0;dashed=1;strokeColor=default;align=center;verticalAlign=middle;fontFamily=Helvetica;fontSize=11;fontColor=default;labelBackgroundColor=default;exitX=1;exitY=0.364;exitDx=0;exitDy=0;exitPerimeter=0;entryX=0.083;entryY=0.5;entryDx=0;entryDy=0;entryPerimeter=0;" edge="1" parent="1" target="c24GGnqR41atnpSuBChh-8">
          <mxGeometry width="50" height="50" relative="1" as="geometry">
            <mxPoint x="300" y="185" as="sourcePoint" />
            <mxPoint x="360" y="140" as="targetPoint" />
          </mxGeometry>
        </mxCell>
        <mxCell id="c24GGnqR41atnpSuBChh-19" value="extend" style="endArrow=classic;html=1;rounded=0;dashed=1;strokeColor=default;align=center;verticalAlign=middle;fontFamily=Helvetica;fontSize=11;fontColor=default;labelBackgroundColor=default;entryX=0.025;entryY=0.6;entryDx=0;entryDy=0;entryPerimeter=0;" edge="1" parent="1" source="c24GGnqR41atnpSuBChh-8" target="c24GGnqR41atnpSuBChh-4">
          <mxGeometry width="50" height="50" relative="1" as="geometry">
            <mxPoint x="490" y="115" as="sourcePoint" />
            <mxPoint x="570" y="50" as="targetPoint" />
          </mxGeometry>
        </mxCell>
        <mxCell id="c24GGnqR41atnpSuBChh-20" value="" style="endArrow=classic;html=1;rounded=0;dashed=1;strokeColor=default;align=center;verticalAlign=middle;fontFamily=Helvetica;fontSize=11;fontColor=default;labelBackgroundColor=default;entryX=0.025;entryY=0.6;entryDx=0;entryDy=0;entryPerimeter=0;" edge="1" parent="1" target="c24GGnqR41atnpSuBChh-8">
          <mxGeometry width="50" height="50" relative="1" as="geometry">
            <mxPoint x="490" y="115" as="sourcePoint" />
            <mxPoint x="588" y="118" as="targetPoint" />
          </mxGeometry>
        </mxCell>
        <mxCell id="c24GGnqR41atnpSuBChh-8" value="formulario creación de servicios&amp;nbsp;" style="ellipse;whiteSpace=wrap;html=1;" vertex="1" parent="1">
          <mxGeometry x="380" y="80" width="120" height="80" as="geometry" />
        </mxCell>
        <mxCell id="c24GGnqR41atnpSuBChh-22" value="include" style="endArrow=classic;html=1;rounded=0;dashed=1;strokeColor=default;align=center;verticalAlign=middle;fontFamily=Helvetica;fontSize=11;fontColor=default;labelBackgroundColor=default;exitX=1;exitY=0.364;exitDx=0;exitDy=0;exitPerimeter=0;entryX=0;entryY=0.5;entryDx=0;entryDy=0;" edge="1" parent="1" target="c24GGnqR41atnpSuBChh-6">
          <mxGeometry width="50" height="50" relative="1" as="geometry">
            <mxPoint x="310" y="230" as="sourcePoint" />
            <mxPoint x="405" y="155" as="targetPoint" />
          </mxGeometry>
        </mxCell>
        <mxCell id="c24GGnqR41atnpSuBChh-23" value="include" style="endArrow=classic;html=1;rounded=0;dashed=1;strokeColor=default;align=center;verticalAlign=middle;fontFamily=Helvetica;fontSize=11;fontColor=default;labelBackgroundColor=default;exitX=1;exitY=0.364;exitDx=0;exitDy=0;exitPerimeter=0;" edge="1" parent="1" target="c24GGnqR41atnpSuBChh-5">
          <mxGeometry width="50" height="50" relative="1" as="geometry">
            <mxPoint x="720" y="115" as="sourcePoint" />
            <mxPoint x="815" y="40" as="targetPoint" />
          </mxGeometry>
        </mxCell>
        <mxCell id="c24GGnqR41atnpSuBChh-24" value="include" style="endArrow=classic;html=1;rounded=0;dashed=1;strokeColor=default;align=center;verticalAlign=middle;fontFamily=Helvetica;fontSize=11;fontColor=default;labelBackgroundColor=default;exitX=1;exitY=0.5;exitDx=0;exitDy=0;entryX=0.225;entryY=0.038;entryDx=0;entryDy=0;entryPerimeter=0;" edge="1" parent="1" source="c24GGnqR41atnpSuBChh-4" target="c24GGnqR41atnpSuBChh-7">
          <mxGeometry width="50" height="50" relative="1" as="geometry">
            <mxPoint x="710" y="125" as="sourcePoint" />
            <mxPoint x="805" y="50" as="targetPoint" />
          </mxGeometry>
        </mxCell>
        <mxCell id="c24GGnqR41atnpSuBChh-25" value="sistema" style="shape=umlActor;verticalLabelPosition=bottom;verticalAlign=top;html=1;outlineConnect=0;" vertex="1" parent="1">
          <mxGeometry x="1000" y="180" width="30" height="60" as="geometry" />
        </mxCell>
        <mxCell id="c24GGnqR41atnpSuBChh-26" value="" style="endArrow=none;html=1;rounded=0;entryX=0.033;entryY=0.388;entryDx=0;entryDy=0;entryPerimeter=0;" edge="1" parent="1" target="c24GGnqR41atnpSuBChh-9">
          <mxGeometry width="50" height="50" relative="1" as="geometry">
            <mxPoint x="130" y="200" as="sourcePoint" />
            <mxPoint x="180" y="150" as="targetPoint" />
          </mxGeometry>
        </mxCell>
        <mxCell id="c24GGnqR41atnpSuBChh-27" value="include" style="endArrow=classic;html=1;rounded=0;dashed=1;strokeColor=default;align=center;verticalAlign=middle;fontFamily=Helvetica;fontSize=11;fontColor=default;labelBackgroundColor=default;exitX=1;exitY=0.364;exitDx=0;exitDy=0;exitPerimeter=0;" edge="1" parent="1">
          <mxGeometry width="50" height="50" relative="1" as="geometry">
            <mxPoint x="920" y="235" as="sourcePoint" />
            <mxPoint x="990" y="235" as="targetPoint" />
          </mxGeometry>
        </mxCell>
      </root>
    </mxGraphModel>
  </diagram>
</mxfile>
